<svg width="24" height="16" viewBox="0 0 24 16" fill="none" xmlns="http://www.w3.org/2000/svg">
<path d="M1.04625 1.87175L10.7963 7.10945C11.1239 7.28495 11.5477 7.36815 11.9741 7.36815C12.4005 7.36815 12.8243 7.28495 13.1519 7.10945L22.9018 1.87175C23.5375 1.52985 24.1382 0.199951 22.9721 0.199951H0.977351C-0.188749 0.199951 0.411851 1.52985 1.04625 1.87175ZM23.197 4.73565L13.1519 9.97075C12.7099 10.2022 12.4005 10.2295 11.9741 10.2295C11.5477 10.2295 11.2383 10.2022 10.7963 9.97075C10.3543 9.73935 1.52335 5.11005 0.801851 4.73435C0.294851 4.46915 0.300051 4.77985 0.300051 5.01905V14.5C0.300051 15.046 1.03585 15.8 1.60005 15.8H22.4001C22.9643 15.8 23.7001 15.046 23.7001 14.5V5.02035C23.7001 4.78115 23.7053 4.47045 23.197 4.73565Z" fill="white"/>
</svg>
