<svg width="22" height="22" viewBox="0 0 22 22" fill="none" xmlns="http://www.w3.org/2000/svg">
<path d="M16.85 21.8333C12.427 21.8276 8.18688 20.068 5.05939 16.9405C1.9319 13.813 0.172359 9.5729 0.166626 5.14996C0.166626 3.8283 0.691654 2.56077 1.62621 1.62621C2.56077 0.691656 3.8283 0.166628 5.14996 0.166628C5.42983 0.164496 5.70923 0.189896 5.98413 0.242461C6.24988 0.281787 6.51113 0.3471 6.76413 0.437461C6.94206 0.499893 7.10062 0.607689 7.22412 0.750189C7.34762 0.89269 7.43179 1.06496 7.46829 1.24996L8.95246 7.74996C8.99246 7.9264 8.98765 8.11004 8.93845 8.28413C8.88925 8.45823 8.79723 8.61723 8.67079 8.74663C8.52996 8.8983 8.51913 8.90913 7.18663 9.60246C8.2537 11.9434 10.1259 13.8233 12.4625 14.9C13.1666 13.5566 13.1775 13.5458 13.3291 13.405C13.4585 13.2785 13.6175 13.1865 13.7916 13.1373C13.9657 13.0881 14.1494 13.0833 14.3258 13.1233L20.8258 14.6075C21.0049 14.649 21.1704 14.7354 21.3069 14.8586C21.4433 14.9818 21.5462 15.1377 21.6058 15.3116C21.6972 15.5688 21.7661 15.8334 21.8116 16.1025C21.8552 16.3747 21.877 16.6501 21.8766 16.9258C21.8566 18.2418 21.3169 19.4965 20.3751 20.4159C19.4333 21.3354 18.1661 21.8449 16.85 21.8333Z" fill="white"/>
</svg>
