<svg width="32" height="23" viewBox="0 0 32 23" fill="none" xmlns="http://www.w3.org/2000/svg">
<path d="M18.2314 0.268921C17.9616 0.326782 17.7209 0.478248 17.5519 0.696514C17.383 0.914781 17.2967 1.18577 17.3084 1.46154V1.53907L6.15391 0.923689C6.00204 0.922379 5.85143 0.951304 5.71085 1.00878C5.57028 1.06626 5.44254 1.15113 5.33509 1.25847C5.22765 1.3658 5.14263 1.49344 5.08501 1.63396C5.02738 1.77447 4.9983 1.92505 4.99945 2.07692C4.99813 2.22889 5.0271 2.3796 5.08465 2.52026C5.1422 2.66092 5.22719 2.78871 5.33465 2.89617C5.44212 3.00364 5.56991 3.08863 5.71057 3.14618C5.85122 3.20373 6.00194 3.23269 6.15391 3.23138L17.3084 2.616V5.192C16.4292 5.58896 15.6717 6.21304 15.1139 7H3.07698C2.4616 7 2.31514 8.03877 2.99945 8.15446C3.18775 8.18523 9.84375 9.80984 13.7687 10.7686C13.6985 11.3188 13.6542 11.8763 13.6542 12.4609C13.6542 16.7994 17.4438 16.808 22.1158 16.808C26.7878 16.808 30.5379 16.8006 30.5379 12.4609C30.5379 8.12615 24.8653 4.61477 20.1921 4.61477C19.9927 4.61477 19.8044 4.64184 19.6161 4.65415V2.616L30.7693 3.23138C30.9213 3.23269 31.072 3.20373 31.2126 3.14618C31.3533 3.08863 31.4811 3.00364 31.5885 2.89617C31.696 2.78871 31.781 2.66092 31.8386 2.52026C31.8961 2.3796 31.9251 2.22889 31.9238 2.07692C31.9251 1.92495 31.8961 1.77424 31.8386 1.63358C31.781 1.49292 31.696 1.36513 31.5885 1.25767C31.4811 1.1502 31.3533 1.06521 31.2126 1.00766C31.072 0.95011 30.9213 0.921146 30.7693 0.922459L19.6148 1.53784V1.46154C19.6187 1.29739 19.588 1.13426 19.5246 0.982787C19.4612 0.831309 19.3667 0.694874 19.2471 0.582367C19.1275 0.469859 18.9856 0.383801 18.8305 0.329795C18.6754 0.27579 18.5107 0.255048 18.3471 0.268921C18.3082 0.266971 18.2692 0.266971 18.2302 0.268921H18.2314ZM3.07698 4.76984C2.3223 4.76984 1.59853 5.06964 1.06488 5.60328C0.531242 6.13692 0.231445 6.8607 0.231445 7.61538C0.231445 8.37007 0.531242 9.09384 1.06488 9.62748C1.59853 10.1611 2.3223 10.4609 3.07698 10.4609C3.99391 10.4609 4.78775 10.0191 5.30837 9.34584L3.80683 8.92246C3.58898 9.04554 3.34406 9.15384 3.07698 9.15384C2.23268 9.15384 1.53852 8.45846 1.53852 7.61538C1.53852 6.77231 2.23391 6.07692 3.07698 6.07692C3.4856 6.07692 3.84252 6.23692 4.11575 6.5003H5.69237C5.47644 5.98554 5.1127 5.54638 4.64716 5.23835C4.18162 4.93033 3.63519 4.76729 3.07698 4.76984ZM22.3078 7.07631C24.4985 7.07631 28.2696 9.12307 28.2696 11.6917C28.2696 12.6542 27.2727 13.1157 23.8844 13.1157C21.6616 13.1157 21.0388 12.0818 21.0388 10.7686C21.0388 8.78338 21.2825 7.07631 22.3078 7.07631ZM30.5391 16.8855C30.3483 16.9268 30.1708 17.0152 30.0229 17.1427C29.875 17.2702 29.7613 17.4327 29.6924 17.6154C29.7047 17.6031 29.7354 17.5945 29.6148 17.6535C29.2739 17.8246 28.1994 18.1545 25.8462 18.1545H12.3078C12.1404 18.127 11.9692 18.1363 11.8058 18.1817C11.6425 18.2271 11.4909 18.3074 11.3617 18.4172C11.2325 18.527 11.1287 18.6635 11.0575 18.8174C10.9863 18.9713 10.9495 19.1388 10.9495 19.3083C10.9495 19.4778 10.9863 19.6454 11.0575 19.7992C11.1287 19.9531 11.2325 20.0896 11.3617 20.1994C11.4909 20.3092 11.6425 20.3895 11.8058 20.4349C11.9692 20.4803 12.1404 20.4896 12.3078 20.4622H25.8462C28.3951 20.4622 29.7601 20.1754 30.6536 19.7311C31.1004 19.5083 31.4425 19.2338 31.6542 18.9225C31.7601 18.7674 31.8413 18.6062 31.8844 18.4609C31.9287 18.3169 31.9238 18.1163 31.9238 18.1163C31.9332 17.9488 31.9066 17.7812 31.8455 17.6249C31.7845 17.4686 31.6905 17.3273 31.57 17.2106C31.4495 17.0938 31.3053 17.0043 31.1472 16.9483C30.9891 16.8922 30.8207 16.8708 30.6536 16.8855C30.6155 16.8837 30.5773 16.8837 30.5391 16.8855ZM1110.15 1799V1801.46H1142.15V1799H1110.15ZM1115.08 1805.15V1807.62H1137.23V1805.15H1115.08ZM1110.15 1811.31V1813.77H1142.15V1811.31H1110.15ZM1115.08 1817.46V1819.92H1137.23V1817.46H1115.08ZM1110.15 1823.62V1826.08H1142.15V1823.62H1110.15Z" fill="white"/>
</svg>
