<svg width="30" height="26" viewBox="0 0 30 26" fill="none" xmlns="http://www.w3.org/2000/svg">
<path d="M14.625 0C11.0911 0 8.22656 2.86457 8.22656 6.39844C8.22656 9.25539 12.4084 14.4625 14.0105 16.3526C14.335 16.7355 14.9155 16.7355 15.2395 16.3526C16.8416 14.4625 21.0234 9.25539 21.0234 6.39844C21.0234 2.86457 18.1589 0 14.625 0ZM14.625 8.53125C13.4469 8.53125 12.4922 7.57656 12.4922 6.39844C12.4922 5.22031 13.4469 4.26562 14.625 4.26562C15.8031 4.26562 16.7578 5.22031 16.7578 6.39844C16.7578 7.57656 15.8031 8.53125 14.625 8.53125ZM1.02172 10.9662C0.720169 11.0868 0.461668 11.295 0.279556 11.5639C0.0974434 11.8328 7.22215e-05 12.1501 0 12.4749L0 25.1865C0 25.7613 0.58043 26.1544 1.11414 25.9411L8.125 22.75V10.9139C7.67609 10.1024 7.30895 9.31227 7.0459 8.55664L1.02172 10.9662ZM14.625 18.2645C13.9105 18.2645 13.2346 17.9507 12.771 17.4032C11.7726 16.2251 10.7108 14.8835 9.75 13.5073V22.7495L19.5 25.9995V13.5078C18.5392 14.8835 17.4779 16.2256 16.479 17.4037C16.0154 17.9507 15.3395 18.2645 14.625 18.2645ZM28.1359 8.18391L21.125 11.375V26L28.2283 23.1588C28.5299 23.0382 28.7884 22.8301 28.9705 22.5611C29.1527 22.2922 29.25 21.9749 29.25 21.6501V8.93852C29.25 8.36367 28.6696 7.97063 28.1359 8.18391Z" fill="white"/>
</svg>
