<svg width="18" height="18" viewBox="0 0 18 18" fill="none" xmlns="http://www.w3.org/2000/svg">
<path d="M9.91668 5.33333C11.8444 5.33333 12.6667 6.15558 12.6667 8.08333H14.5C14.5 5.12708 12.8729 3.5 9.91668 3.5V5.33333ZM13.0535 10.3227C12.8774 10.1627 12.6459 10.0773 12.408 10.0846C12.1701 10.092 11.9443 10.1915 11.7784 10.3622L9.58485 12.6181C9.05685 12.5172 7.99535 12.1863 6.90268 11.0964C5.81001 10.0028 5.4791 8.93858 5.38101 8.41425L7.6351 6.21975C7.80598 6.05395 7.90564 5.82817 7.913 5.59019C7.92035 5.3522 7.83483 5.1207 7.67451 4.94466L4.28743 1.22025C4.12705 1.04366 3.90415 0.936541 3.66607 0.92165C3.42799 0.906759 3.19348 0.985265 3.01235 1.1405L1.02318 2.84641C0.8647 3.00547 0.770107 3.21716 0.757348 3.44133C0.743598 3.6705 0.481431 9.099 4.69076 13.3102C8.36293 16.9814 12.9628 17.25 14.2296 17.25C14.4148 17.25 14.5284 17.2445 14.5587 17.2427C14.7828 17.2301 14.9944 17.1351 15.1527 16.9759L16.8577 14.9858C17.013 14.8048 17.0917 14.5704 17.077 14.3323C17.0622 14.0942 16.9553 13.8712 16.7788 13.7107L13.0535 10.3227Z" fill="white"/>
</svg>
